Coordinates
version=1
nRows=11
nColumns=40
inDegrees=yes

Units are S.I. units (second, meters, Newtons, ...)
If the header above contains a line with 'inDegrees', this indicates whether rotational values are in degrees (yes) or radians (no).

endheader
time	pelvis_tilt	pelvis_list	pelvis_rotation	pelvis_tx	pelvis_ty	pelvis_tz	hip_flexion_r	hip_adduction_r	hip_rotation_r	knee_angle_r	knee_angle_r_beta	ankle_angle_r	subtalar_angle_r	mtp_angle_r	hip_flexion_l	hip_adduction_l	hip_rotation_l	knee_angle_l	knee_angle_l_beta	ankle_angle_l	subtalar_angle_l	mtp_angle_l	lumbar_extension	lumbar_bending	lumbar_rotation	arm_flex_r	arm_add_r	arm_rot_r	elbow_flex_r	pro_sup_r	wrist_flex_r	wrist_dev_r	arm_flex_l	arm_add_l	arm_rot_l	elbow_flex_l	pro_sup_l	wrist_flex_l	wrist_dev_l
      3.95000000	    -16.86079529	      5.78291315	      4.14043625	     -0.44460174	      0.74325075	     -0.72773332	     69.85399316	     -5.32521671	     -5.07919978	     86.82858857	      1.51544476	     22.15333959	      0.00000000	      0.00000000	     84.39403526	     -0.81684719	    -10.98901780	     37.42415047	      0.65317465	    -22.35797107	      0.00000000	      0.00000000	    -10.99358671	     -1.83600914	     -5.86829656	     89.96821586	     -1.97340998	     12.37756610	     50.30077419	     67.75802821	      0.00000000	      0.00000000	     89.95617930	     -7.16044793	      8.33943540	     47.71135433	     80.87524993	      0.00000000	      0.00000000
      3.95500000	    -16.81229650	      5.79760830	      4.13641365	     -0.44461676	      0.74265485	     -0.72770538	     69.88447718	     -5.31491167	     -5.04603146	     86.99168316	      1.51829129	     22.27401295	      0.00000000	      0.00000000	     84.41021979	     -0.80296459	    -10.94378253	     37.53676657	      0.65514017	    -22.09502396	      0.00000000	      0.00000000	    -11.05865210	     -1.85482273	     -5.84218711	     89.96827239	     -1.99328783	     12.48706113	     50.15912767	     65.22012899	      0.00000000	      0.00000000	     89.95634060	     -7.04797457	      8.52419261	     47.63122828	     77.65726182	      0.00000000	      0.00000000
      3.96000000	    -16.84865810	      5.79959807	      4.18677682	     -0.44478594	      0.74209189	     -0.72770573	     69.99200855	     -5.38212950	     -5.09039538	     87.09591755	      1.52011053	     22.23655812	      0.00000000	      0.00000000	     84.42868700	     -0.75494807	    -10.99985207	     37.39607503	      0.65268464	    -22.17639575	      0.00000000	      0.00000000	    -11.07327515	     -1.86879016	     -5.94106154	     89.96821332	     -1.99876909	     12.81706434	     50.37897981	     62.37471645	      0.00000000	      0.00000000	     89.95616508	     -7.12199604	      9.07478493	     47.88416086	     73.18411979	      0.00000000	      0.00000000
      3.96500000	    -16.76405138	      5.75951312	      4.16843770	     -0.44469411	      0.74154992	     -0.72765204	     69.93613646	     -5.32433351	     -5.10963379	     87.18317478	      1.52163345	     22.42955051	      0.00000000	      0.00000000	     84.46090624	     -0.77097726	    -10.88172338	     37.69266232	      0.65786106	    -21.46996164	      0.00000000	      0.00000000	    -11.14084730	     -1.82381974	     -5.94125187	     89.96832559	     -1.89794555	     13.07731139	     50.47267153	     59.09514195	      0.00000000	      0.00000000	     89.95646628	     -6.92437761	      9.22040183	     47.71831221	     67.84168446	      0.00000000	      0.00000000
      3.97000000	    -16.88847564	      5.81152223	      4.21594936	     -0.44497621	      0.74094183	     -0.72771416	     70.16907750	     -5.39602580	     -5.05912263	     87.31193106	      1.52388067	     22.34483883	      0.00000000	      0.00000000	     84.49221618	     -0.68994874	    -10.93164152	     37.30565543	      0.65110652	    -22.31740741	      0.00000000	      0.00000000	    -11.09892017	     -1.89868331	     -5.98505454	     89.96824535	     -2.03165095	     13.21752003	     50.69422193	     57.34671093	      0.00000000	      0.00000000	     89.95619184	     -7.02084494	      9.63920349	     48.06378116	     66.05733456	      0.00000000	      0.00000000
      3.97500000	    -16.86394351	      5.83215906	      4.22391534	     -0.44506430	      0.74049361	     -0.72768200	     70.19861210	     -5.42241166	     -5.05789122	     87.39607911	      1.52534933	     22.39330978	      0.00000000	      0.00000000	     84.48484473	     -0.66407372	    -10.89030756	     37.30595920	      0.65111182	    -22.20861561	      0.00000000	      0.00000000	    -11.15455854	     -1.87483073	     -6.05984042	     89.96834209	     -1.85735675	     13.10444875	     50.58658245	     61.26515578	      0.00000000	      0.00000000	     89.95613135	     -7.15679414	      8.30146450	     47.67733182	     81.15750771	      0.00000000	      0.00000000
      3.98000000	    -16.87522746	      5.82871292	      4.21691914	     -0.44511778	      0.73996543	     -0.72767252	     70.27074286	     -5.40514977	     -5.04183015	     87.49860883	      1.52713881	     22.47992694	      0.00000000	      0.00000000	     84.52489390	     -0.66402634	    -10.84834560	     37.29925060	      0.65099473	    -22.20331358	      0.00000000	      0.00000000	    -11.19919577	     -1.84856582	     -6.00213629	     89.96834437	     -1.88689152	     13.07215323	     50.63924427	     58.13571429	      0.00000000	      0.00000000	     89.95615237	     -7.10597457	      8.79573676	     47.84709975	     75.19789227	      0.00000000	      0.00000000
      3.98500000	    -16.86409875	      5.84324816	      4.22777017	     -0.44522806	      0.73952079	     -0.72773796	     70.32435630	     -5.47277085	     -5.07482565	     87.57980949	      1.52855603	     22.37375940	      0.00000000	      0.00000000	     84.51724496	     -0.63289823	    -10.81912831	     37.26336568	      0.65036842	    -22.22619608	      0.00000000	      0.00000000	    -11.23137903	     -1.84587176	     -6.08410588	     89.96834752	     -1.75729705	     13.52495354	     50.91884419	     56.16961402	      0.00000000	      0.00000000	     89.95611378	     -7.16051775	      9.29593605	     47.93769578	     70.13324344	      0.00000000	      0.00000000
      3.99000000	    -16.87803639	      5.83901017	      4.20964083	     -0.44534291	      0.73896371	     -0.72772368	     70.40928680	     -5.43736875	     -5.04853571	     87.69986355	      1.53065137	     22.53068241	      0.00000000	      0.00000000	     84.58571721	     -0.63989079	    -10.74092682	     37.29966287	      0.65100193	    -22.23642329	      0.00000000	      0.00000000	    -11.22973823	     -1.90359515	     -6.05074596	     89.96828160	     -1.86214305	     13.68742606	     50.99240936	     54.52637652	      0.00000000	      0.00000000	     89.95615700	     -7.00263782	      9.53007405	     47.99691142	     66.27312452	      0.00000000	      0.00000000
      3.99500000	    -16.92360220	      5.83245677	      4.21537665	     -0.44540960	      0.73845371	     -0.72777848	     70.51954914	     -5.47445027	     -5.08427060	     87.79257814	      1.53226955	     22.49861094	      0.00000000	      0.00000000	     84.66037991	     -0.63960723	    -10.74151767	     37.30108367	      0.65102672	    -22.11886259	      0.00000000	      0.00000000	    -11.22563025	     -1.84438157	     -6.02222578	     89.96835890	     -1.81339800	     13.72155502	     51.10128032	     53.67829843	      0.00000000	      0.00000000	     89.95607184	     -7.04572254	      9.68063469	     48.08864986	     65.07504025	      0.00000000	      0.00000000
      4.00000000	    -16.88785120	      5.82399307	      4.18984541	     -0.44550458	      0.73807502	     -0.72777134	     70.53305355	     -5.48617771	     -5.13209071	     87.87055138	      1.53363044	     22.49017692	      0.00000000	      0.00000000	     84.66320503	     -0.67856421	    -10.77307433	     37.33506279	      0.65161977	    -22.17266856	      0.00000000	      0.00000000	    -11.26856684	     -1.87137365	     -6.01402711	     89.96830587	     -1.86249706	     13.57068100	     51.00071458	     52.18186665	      0.00000000	      0.00000000	     89.95607193	     -6.92988224	      9.86106253	     48.12763103	     61.55356556	      0.00000000	      0.00000000
